<svg width="60" height="13" viewBox="0 0 60 13" fill="none" xmlns="http://www.w3.org/2000/svg">
<path d="M34.6953 0.0175781V12.6174H37.431V0.0175781H34.6953Z" fill="#ECF4FF"/>
<path d="M54.1889 10.116V7.52187H58.7736V5.02044H54.1889V2.51901H60V0.0175781H51.4531V12.6174H60V10.116H54.1889Z" fill="#ECF4FF"/>
<path d="M4.54856 0H0V12.6331H4.54856C7.96945 12.6331 11.5541 11.7551 11.5541 6.30759C11.5541 0.878047 7.96945 0 4.54856 0ZM2.74713 10.1065V2.52662H4.54856C6.82309 2.52662 8.62451 2.70581 8.62451 6.30759C8.62451 9.92729 6.82309 10.1065 4.54856 10.1065H2.74713Z" fill="#ECF4FF"/>
<path d="M12.5855 7.99201C12.5855 10.5545 14.0702 12.8123 17.6003 12.8123C20.7846 12.8123 22.1783 10.7516 22.3421 9.44347H19.4307C19.4307 10.1065 18.5395 10.4828 17.6003 10.4828C15.9444 10.4828 15.3332 9.7481 15.3332 8.70878H22.3515V7.81281C22.3515 5.07116 20.2825 3.40467 17.4257 3.40467C14.5689 3.40467 12.5855 5.12492 12.5855 7.99201ZM15.3332 7.16241C15.3332 6.48148 15.9448 5.7521 17.4257 5.7521C19.0452 5.7521 19.6221 6.48148 19.6221 7.16241H15.3332Z" fill="#ECF4FF"/>
<path fill-rule="evenodd" clip-rule="evenodd" d="M46.9342 12.6174V8.80038H42.142V12.6174H39.4062V0.0175781H44.0664C48.1417 0.0175781 49.4813 1.70373 49.4813 3.98281C49.4813 6.02101 48.4218 7.24133 45.8747 7.29692L45.8959 7.30531L45.8415 7.30453C46.157 7.58948 46.6664 8.04535 47.2151 8.53645C48.2128 9.42939 49.3407 10.4388 49.67 10.7492V12.6174H46.9342ZM46.7456 4.44604C46.7456 2.96371 46.0663 2.51901 44.0664 2.51901H42.142V6.29895H44.0664C46.0663 6.29895 46.7456 5.89131 46.7456 4.44604Z" fill="#ECF4FF"/>
<path fill-rule="evenodd" clip-rule="evenodd" d="M26.6414 2.01842C26.8362 2.19416 27.022 2.36163 27.1872 2.51092H24.4531V12.6174H27.1889V8.11481H31.8868V5.61337H27.1889V2.51103H32.9999V0.0175781H24.4531V0.0186183C24.59 0.168558 25.7184 1.18617 26.6414 2.01842Z" fill="#ECF4FF"/>
</svg>
