<svg width="262" height="88" viewBox="0 0 262 88" fill="none" xmlns="http://www.w3.org/2000/svg">
<path d="M178.252 43.4243V85.8849H187.306V43.4243H178.252Z" fill="#ECF4FF"/>
<path d="M242.767 77.4552V68.7134H257.941V60.2837H242.767V51.854H262V43.4243H233.713V85.8849H262V77.4552H242.767Z" fill="#ECF4FF"/>
<path d="M78.4776 43.3711H63.4238V85.9439H78.4776C89.7993 85.9439 101.663 82.985 101.663 64.6273C101.663 46.3301 89.7993 43.3711 78.4776 43.3711ZM72.5157 77.4293V51.8857H78.4776C86.0053 51.8857 91.9673 52.4895 91.9673 64.6273C91.9673 76.8255 86.0053 77.4293 78.4776 77.4293H72.5157Z" fill="#ECF4FF"/>
<path d="M105.077 70.3037C105.077 78.939 109.99 86.5478 121.673 86.5478C132.212 86.5478 136.825 79.6033 137.367 75.195H127.731C127.731 77.4294 124.782 78.6975 121.673 78.6975C116.193 78.6975 114.17 76.2216 114.17 72.7192H137.398V69.6998C137.398 60.4606 130.55 54.8446 121.096 54.8446C111.641 54.8446 105.077 60.6418 105.077 70.3037ZM114.17 67.508C114.17 65.2133 116.194 62.7553 121.096 62.7553C126.455 62.7553 128.365 65.2133 128.365 67.508H114.17Z" fill="#ECF4FF"/>
<path fill-rule="evenodd" clip-rule="evenodd" d="M218.763 85.8849V73.0219H202.902V85.8849H193.848V43.4243H209.271C222.759 43.4243 227.192 49.1065 227.192 56.7869C227.192 63.6555 223.686 67.7679 215.256 67.9553L215.326 67.9835L215.146 67.9809C216.19 68.9412 217.876 70.4774 219.692 72.1324C222.994 75.1416 226.727 78.5433 227.817 79.5893V85.8849H218.763ZM218.138 58.348C218.138 53.3526 215.89 51.854 209.271 51.854H202.902V64.5922H209.271C215.89 64.5922 218.138 63.2184 218.138 58.348Z" fill="#ECF4FF"/>
<path fill-rule="evenodd" clip-rule="evenodd" d="M151.592 50.1671C152.237 50.7593 152.851 51.3236 153.398 51.8267H144.35V85.8849H153.404V70.7115H168.952V62.2818H153.404V51.8271H172.636V43.4243H144.35V43.4278C144.802 43.9331 148.537 47.3624 151.592 50.1671Z" fill="#ECF4FF"/>
<path fill-rule="evenodd" clip-rule="evenodd" d="M50.8487 28.9544L0 0V29.2125L24.3081 43.1856L0 57.1586V87.0462L25.5254 43.5111L50.8487 28.9544Z" fill="#ECF4FF"/>
</svg>
