<svg width="24" height="15" viewBox="0 0 24 15" fill="none" xmlns="http://www.w3.org/2000/svg">
<path d="M13.5374 7.2276C13.5374 10.9983 10.5069 14.0551 6.76883 14.0551C3.03073 14.0551 0 10.9976 0 7.2276C0 3.45758 3.0305 0.399902 6.76883 0.399902C10.5072 0.399902 13.5374 3.45688 13.5374 7.2276Z" fill="#ECF4FF"/>
<path d="M20.9627 7.22756C20.9627 10.7769 19.4474 13.6553 17.5783 13.6553C15.7091 13.6553 14.1938 10.7769 14.1938 7.22756C14.1938 3.67824 15.7089 0.799805 17.578 0.799805C19.4472 0.799805 20.9625 3.67732 20.9625 7.22756" fill="#ECF4FF"/>
<path d="M24 7.22749C24 10.4068 23.4672 12.9857 22.8097 12.9857C22.1522 12.9857 21.6196 10.4075 21.6196 7.22749C21.6196 4.04748 22.1525 1.46924 22.8097 1.46924C23.467 1.46924 24 4.04725 24 7.22749Z" fill="#ECF4FF"/>
</svg>
