<svg width="23" height="23" viewBox="0 0 23 23" fill="none" xmlns="http://www.w3.org/2000/svg">
<path d="M20.1798 6.88136C20.1887 7.08376 20.1887 7.27696 20.1887 7.47936C20.1976 13.6158 15.6891 20.6998 7.44437 20.6998C5.01264 20.6998 2.6253 19.973 0.575195 18.6114C0.930191 18.6574 1.28519 18.6758 1.64018 18.6758C3.65479 18.6758 5.61614 17.9766 7.20474 16.6794C5.28777 16.6426 3.60154 15.3454 3.01579 13.4502C3.69028 13.5882 4.38253 13.5606 5.03927 13.3674C2.95367 12.9442 1.45381 11.0398 1.44494 8.82257C1.44494 8.80417 1.44494 8.78577 1.44494 8.76737C2.06618 9.12617 2.7673 9.32857 3.47729 9.34697C1.51593 7.98536 0.903567 5.27136 2.0928 3.14615C4.37365 6.05336 7.72836 7.81056 11.3316 8.00376C10.9677 6.39376 11.4647 4.70095 12.6273 3.56015C14.4289 1.80294 17.2689 1.89494 18.9729 3.76255C19.9757 3.56015 20.9431 3.17375 21.8217 2.63095C21.4845 3.70735 20.7833 4.61815 19.8515 5.19775C20.739 5.08735 21.6087 4.83895 22.4252 4.47095C21.8217 5.40936 21.0585 6.21896 20.1798 6.88136Z" fill="#ECF4FF"/>
</svg>
